<mxfile host="app.diagrams.net" modified="2023-11-13T10:55:56.539Z" agent="Mozilla/5.0 (Windows NT 10.0; Win64; x64; rv:109.0) Gecko/20100101 Firefox/119.0" etag="JWi0j0YnzqLxWNV_UqQ5" version="22.1.0" type="device">
  <diagram name="Page-1" id="NvGkdAE7xBW3uDrcnvhO">
    <mxGraphModel dx="1573" dy="501" grid="1" gridSize="10" guides="1" tooltips="1" connect="1" arrows="1" fold="1" page="1" pageScale="1" pageWidth="827" pageHeight="1169" math="0" shadow="0">
      <root>
        <mxCell id="0" />
        <mxCell id="1" parent="0" />
        <mxCell id="VG8ZnwepA-Bd3GShXPEL-5" value="def compare()" style="rounded=0;whiteSpace=wrap;html=1;fillColor=#fff2cc;strokeColor=#d6b656;strokeWidth=2;" vertex="1" parent="1">
          <mxGeometry x="160" y="80" width="80" height="120" as="geometry" />
        </mxCell>
        <mxCell id="VG8ZnwepA-Bd3GShXPEL-7" value="response" style="html=1;shadow=0;dashed=0;align=center;verticalAlign=middle;shape=mxgraph.arrows2.arrow;dy=0.56;dx=39.33;notch=0;fillColor=#fff2cc;strokeColor=#d6b656;strokeWidth=2;" vertex="1" parent="1">
          <mxGeometry x="190" y="160" width="80" height="49" as="geometry" />
        </mxCell>
        <mxCell id="VG8ZnwepA-Bd3GShXPEL-8" value="def formalise()" style="rounded=0;whiteSpace=wrap;html=1;fillColor=#fff2cc;strokeColor=#d6b656;strokeWidth=2;" vertex="1" parent="1">
          <mxGeometry y="80" width="80" height="120" as="geometry" />
        </mxCell>
        <mxCell id="VG8ZnwepA-Bd3GShXPEL-9" value="response" style="html=1;shadow=0;dashed=0;align=center;verticalAlign=middle;shape=mxgraph.arrows2.arrow;dy=0.56;dx=39.33;notch=0;fillColor=#fff2cc;strokeColor=#d6b656;strokeWidth=2;" vertex="1" parent="1">
          <mxGeometry x="30" y="160" width="80" height="49" as="geometry" />
        </mxCell>
        <mxCell id="VG8ZnwepA-Bd3GShXPEL-12" value="&lt;p style=&quot;margin:0px;margin-top:4px;text-align:center;text-decoration:underline;&quot;&gt;&lt;b&gt;Object:Response&lt;/b&gt;&lt;/p&gt;&lt;hr&gt;&lt;p style=&quot;margin:0px;margin-left:8px;&quot;&gt;passed&lt;span style=&quot;white-space: pre;&quot;&gt;&#x9;&lt;/span&gt;= boolan&lt;/p&gt;&lt;p style=&quot;margin:0px;margin-left:8px;&quot;&gt;type&lt;span style=&quot;white-space: pre;&quot;&gt;&#x9;&lt;/span&gt;&lt;span style=&quot;white-space: pre;&quot;&gt;&#x9;&lt;/span&gt;= text&lt;br&gt;&lt;/p&gt;&lt;p style=&quot;margin:0px;margin-left:8px;&quot;&gt;message&lt;span style=&quot;white-space: pre;&quot;&gt;&#x9;&lt;/span&gt;= text&lt;br&gt;data&lt;span style=&quot;white-space: pre;&quot;&gt;&#x9;&lt;/span&gt;&lt;span style=&quot;white-space: pre;&quot;&gt;&#x9;&lt;/span&gt;= object&lt;br&gt;&lt;/p&gt;" style="verticalAlign=top;align=left;overflow=fill;fontSize=12;fontFamily=Helvetica;html=1;whiteSpace=wrap;" vertex="1" parent="1">
          <mxGeometry y="320" width="160" height="100" as="geometry" />
        </mxCell>
        <mxCell id="VG8ZnwepA-Bd3GShXPEL-13" style="rounded=0;orthogonalLoop=1;jettySize=auto;html=1;entryX=0.395;entryY=0.668;entryDx=0;entryDy=0;entryPerimeter=0;exitX=0.75;exitY=0;exitDx=0;exitDy=0;dashed=1;" edge="1" parent="1" source="VG8ZnwepA-Bd3GShXPEL-12" target="VG8ZnwepA-Bd3GShXPEL-7">
          <mxGeometry relative="1" as="geometry" />
        </mxCell>
        <mxCell id="VG8ZnwepA-Bd3GShXPEL-14" style="rounded=0;orthogonalLoop=1;jettySize=auto;html=1;entryX=0;entryY=0;entryDx=40.335;entryDy=35.28;entryPerimeter=0;exitX=0.5;exitY=0;exitDx=0;exitDy=0;dashed=1;" edge="1" parent="1" source="VG8ZnwepA-Bd3GShXPEL-12" target="VG8ZnwepA-Bd3GShXPEL-9">
          <mxGeometry relative="1" as="geometry" />
        </mxCell>
        <mxCell id="VG8ZnwepA-Bd3GShXPEL-15" value="" style="rounded=1;whiteSpace=wrap;html=1;align=left;dashed=1;" vertex="1" parent="1">
          <mxGeometry y="480" width="360" height="60" as="geometry" />
        </mxCell>
        <mxCell id="VG8ZnwepA-Bd3GShXPEL-16" value="" style="rounded=1;whiteSpace=wrap;html=1;align=left;dashed=1;" vertex="1" parent="1">
          <mxGeometry y="550" width="360" height="60" as="geometry" />
        </mxCell>
        <mxCell id="VG8ZnwepA-Bd3GShXPEL-17" value="&lt;h3&gt;Examples&lt;/h3&gt;" style="text;html=1;strokeColor=none;fillColor=none;align=center;verticalAlign=middle;whiteSpace=wrap;rounded=0;" vertex="1" parent="1">
          <mxGeometry x="-40" y="450" width="60" height="30" as="geometry" />
        </mxCell>
        <mxCell id="VG8ZnwepA-Bd3GShXPEL-18" value="&lt;h3&gt;Schema&lt;/h3&gt;" style="text;html=1;strokeColor=none;fillColor=none;align=center;verticalAlign=middle;whiteSpace=wrap;rounded=0;" vertex="1" parent="1">
          <mxGeometry x="-40" y="50" width="60" height="30" as="geometry" />
        </mxCell>
        <mxCell id="VG8ZnwepA-Bd3GShXPEL-19" value="&lt;h3&gt;Object&lt;/h3&gt;" style="text;html=1;strokeColor=none;fillColor=none;align=center;verticalAlign=middle;whiteSpace=wrap;rounded=0;" vertex="1" parent="1">
          <mxGeometry x="-40" y="290" width="60" height="30" as="geometry" />
        </mxCell>
        <mxCell id="VG8ZnwepA-Bd3GShXPEL-20" value="&lt;div align=&quot;left&quot;&gt;&lt;span style=&quot;white-space: pre;&quot;&gt;&#x9;&lt;/span&gt;[ False , &quot;Error&quot; , &quot;Formalise error&quot; , Null ]&lt;/div&gt;" style="rounded=0;whiteSpace=wrap;html=1;strokeColor=none;fillColor=#f5f5f5;fontColor=#333333;align=left;" vertex="1" parent="1">
          <mxGeometry x="20" y="495" width="320" height="30" as="geometry" />
        </mxCell>
        <mxCell id="VG8ZnwepA-Bd3GShXPEL-23" value="&lt;div align=&quot;left&quot;&gt;&lt;span style=&quot;white-space: pre;&quot;&gt;&#x9;&lt;/span&gt;&lt;span style=&quot;&quot;&gt;&lt;/span&gt;[ True , &quot;Succes&quot; , &quot;Formalised 35 row &quot; , [*ROWS*] ]&lt;/div&gt;" style="rounded=0;whiteSpace=wrap;html=1;strokeColor=none;fillColor=#f5f5f5;fontColor=#333333;align=left;" vertex="1" parent="1">
          <mxGeometry x="20" y="565" width="320" height="30" as="geometry" />
        </mxCell>
      </root>
    </mxGraphModel>
  </diagram>
</mxfile>
